<?xml version="1.0" standalone="no"?><!DOCTYPE svg PUBLIC "-//W3C//DTD SVG 1.1//EN" "http://www.w3.org/Graphics/SVG/1.1/DTD/svg11.dtd"><svg height="1024" node-id="1" sillyvg="true" template-height="1024" template-width="1024" version="1.1" viewBox="0 0 1024 1024" width="1024" xmlns="http://www.w3.org/2000/svg" xmlns:xlink="http://www.w3.org/1999/xlink"><defs node-id="37"><linearGradient gradientUnits="objectBoundingBox" id="paint0_linear_1_668" node-id="33" spreadMethod="pad" x1="706.054" x2="761.885" y1="215.677" y2="126.105"><stop offset="0" stop-color="#0e051e"></stop><stop offset="1" stop-color="#2e223a"></stop></linearGradient></defs><path d="M 0.00 0.00 L 1024.00 0.00 L 1024.00 1024.00 L 0.00 1024.00 Z" fill="#ffffff" fill-rule="nonzero" node-id="46" stroke="none" target-height="1024" target-width="1024" target-x="0" target-y="0"></path><path d="M 318.30 639.30 L 321.80 640.30 L 325.20 641.80 L 324.90 644.70 L 325.40 647.60 L 323.60 658.80 L 322.40 662.50 L 321.10 664.40 L 316.20 668.30 L 318.30 639.30 Z" fill="#000001" fill-rule="nonzero" node-id="48" stroke="none" target-height="29" target-width="9.199982" target-x="316.2" target-y="639.3"></path><path d="M 237.40 152.30 L 238.40 164.90 L 239.00 168.70 L 240.00 172.40 L 241.60 175.90 L 243.10 178.10 L 247.40 182.40 L 250.10 184.20 L 252.80 185.50 L 255.50 186.20 L 259.60 186.80 L 272.40 186.60 L 276.60 186.90 L 280.70 187.80 L 279.30 193.90 L 278.50 199.50 L 278.40 203.30 L 279.30 210.60 L 280.30 214.20 L 281.70 217.90 L 283.70 221.80 L 285.80 225.00 L 288.20 228.10 L 293.60 233.80 L 298.30 237.50 L 303.30 240.80 L 301.30 243.70 L 303.50 248.00 L 306.20 251.90 L 298.90 265.60 L 289.30 281.00 L 288.70 277.80 L 281.80 289.50 L 275.40 303.40 L 272.10 312.50 L 269.70 320.40 L 266.60 328.00 L 262.20 342.00 L 260.50 349.10 L 259.20 352.50 L 256.60 364.40 L 255.90 370.10 L 254.70 374.10 L 254.40 380.60 L 254.10 382.80 L 253.10 385.10 L 253.50 389.30 L 253.30 397.60 L 253.50 400.30 L 254.70 406.80 L 254.10 410.20 L 249.90 408.90 L 248.90 398.80 L 247.10 398.40 L 247.60 404.70 L 246.00 396.00 L 245.80 386.00 L 246.40 379.10 L 247.30 371.90 L 248.80 364.30 L 251.60 353.00 L 255.00 341.40 L 259.00 329.90 L 267.70 307.90 L 279.90 280.50 L 269.60 276.40 L 259.70 271.30 L 255.10 268.30 L 250.90 265.10 L 246.90 261.50 L 243.20 257.70 L 238.70 252.30 L 234.80 246.50 L 231.40 240.30 L 228.40 233.80 L 226.00 227.10 L 224.20 220.20 L 223.10 214.40 L 222.50 208.60 L 222.30 202.70 L 222.50 196.70 L 223.20 190.80 L 225.60 179.20 L 227.40 173.50 L 230.20 166.10 L 233.60 159.00 L 237.40 152.30 Z" fill="#060219" fill-rule="nonzero" node-id="50" stroke="none" target-height="257.90002" target-width="83.90001" target-x="222.3" target-y="152.3"></path><path d="M 237.40 152.30 L 241.70 146.50 L 246.20 141.10 L 251.00 136.20 L 256.20 131.80 L 261.60 127.80 L 267.40 124.20 L 273.50 121.10 L 279.80 118.40 L 286.40 116.20 L 293.40 114.50 L 304.90 112.90 L 316.30 112.80 L 327.60 114.20 L 338.60 117.10 L 349.10 121.40 L 359.20 127.10 L 367.40 133.30 L 374.10 140.30 L 380.00 148.00 L 383.90 154.30 L 387.60 161.00 L 376.00 168.10 L 353.80 184.30 L 337.80 200.20 L 303.30 240.80 L 298.30 237.50 L 293.60 233.80 L 288.20 228.10 L 285.80 225.00 L 283.70 221.80 L 281.70 217.90 L 280.30 214.20 L 279.30 210.60 L 278.40 203.30 L 278.50 199.50 L 279.30 193.90 L 280.70 187.80 L 276.60 186.90 L 272.40 186.60 L 259.60 186.80 L 255.50 186.20 L 252.80 185.50 L 250.10 184.20 L 247.40 182.40 L 243.10 178.10 L 241.60 175.90 L 240.00 172.40 L 239.00 168.70 L 238.40 164.90 L 237.40 152.30 Z" fill="#271834" fill-rule="nonzero" node-id="52" stroke="none" target-height="128" target-width="150.20001" target-x="237.4" target-y="112.8"></path><path d="M 280.70 187.80 L 283.00 183.50 L 288.30 175.70 L 291.40 172.20 L 294.90 169.10 L 298.90 166.30 L 304.70 163.40 L 311.10 161.60 L 317.70 160.90 L 321.00 161.00 L 327.50 162.10 L 331.50 163.40 L 335.20 165.10 L 338.40 167.00 L 344.30 171.70 L 346.90 174.50 L 350.50 179.10 L 353.80 184.30 L 337.80 200.20 L 303.30 240.80 L 298.30 237.50 L 293.60 233.80 L 288.20 228.10 L 285.80 225.00 L 283.70 221.80 L 281.70 217.90 L 280.30 214.20 L 279.30 210.60 L 278.40 203.30 L 278.50 199.50 L 279.30 193.90 L 280.70 187.80 Z" fill="#e4148f" fill-rule="nonzero" node-id="54" stroke="none" target-height="79.90001" target-width="75.399994" target-x="278.4" target-y="160.9"></path><path d="M 293.60 233.80 L 294.90 231.90 L 299.20 221.10 L 303.40 213.40 L 308.10 206.70 L 313.80 200.80 L 317.00 198.40 L 319.30 197.10 L 324.10 195.60 L 327.20 195.40 L 329.40 195.60 L 331.50 196.20 L 333.40 197.10 L 337.80 200.20 L 303.30 240.80 L 298.30 237.50 L 293.60 233.80 Z" fill="#d01d7c" fill-rule="nonzero" node-id="56" stroke="none" target-height="45.40001" target-width="44.19998" target-x="293.6" target-y="195.4"></path><path d="M 647.30 149.10 L 651.10 142.20 L 653.60 138.90 L 657.80 134.30 L 662.50 130.10 L 667.60 126.20 L 672.90 122.90 L 678.40 120.00 L 683.70 117.60 L 689.50 115.70 L 695.20 114.10 L 700.90 113.00 L 706.60 112.30 L 712.30 112.00 L 723.80 112.60 L 729.50 113.50 L 740.80 116.40 L 751.90 120.70 L 757.40 123.50 L 762.70 126.70 L 767.70 130.20 L 772.50 134.00 L 781.20 142.60 L 788.70 152.20 L 794.90 162.70 L 797.50 168.30 L 799.80 174.00 L 801.70 180.00 L 803.10 186.10 L 804.10 192.30 L 804.70 198.60 L 804.80 204.90 L 804.40 211.20 L 803.50 217.50 L 802.20 223.60 L 800.30 229.50 L 799.80 229.90 L 797.60 229.00 L 797.20 231.20 L 796.20 233.20 L 796.20 234.70 L 794.10 236.00 L 794.40 238.90 L 792.00 234.70 L 786.40 238.90 L 781.00 236.70 L 778.40 235.10 L 767.30 226.90 L 760.30 222.70 L 757.60 220.60 L 752.70 215.40 L 749.50 222.90 L 748.20 225.10 L 745.70 228.40 L 742.70 231.70 L 739.20 234.80 L 735.50 237.50 L 730.20 240.20 L 725.90 241.30 L 723.50 240.50 L 722.10 239.60 L 717.20 232.00 L 711.90 224.50 L 706.20 217.30 L 688.20 196.70 L 679.60 191.40 L 674.90 192.30 L 670.40 193.90 L 643.90 173.30 L 643.40 168.90 L 642.70 166.90 L 639.60 161.10 L 642.90 157.60 L 647.30 149.10 Z" fill="url(#paint0_linear_1_668)" fill-rule="nonzero" node-id="58" stroke="none" target-height="129.3" target-width="165.20001" target-x="639.6" target-y="112"></path><path d="M 676.10 186.30 L 682.30 174.40 L 684.30 171.20 L 687.40 167.40 L 691.60 164.40 L 694.30 163.10 L 697.50 162.00 L 704.50 160.70 L 708.10 160.50 L 715.20 161.10 L 722.20 162.80 L 725.50 164.10 L 732.20 168.00 L 735.70 170.70 L 742.20 177.20 L 745.00 180.80 L 747.40 184.60 L 749.60 188.60 L 751.20 192.70 L 752.40 196.80 L 753.30 201.40 L 753.60 206.10 L 753.60 209.30 L 752.70 215.40 L 749.50 222.90 L 748.20 225.10 L 745.70 228.40 L 742.70 231.70 L 739.20 234.80 L 732.80 239.00 L 727.60 241.00 L 725.90 241.30 L 724.70 241.10 L 722.10 239.60 L 717.20 232.00 L 711.90 224.50 L 706.20 217.30 L 688.20 196.70 L 679.60 191.40 L 676.10 186.30 Z" fill="#e4148f" fill-rule="nonzero" node-id="60" stroke="none" target-height="80.8" target-width="77.5" target-x="676.1" target-y="160.5"></path><path d="M 688.20 196.70 L 693.40 198.40 L 698.60 200.60 L 719.00 210.20 L 735.10 215.20 L 739.00 216.70 L 742.30 218.40 L 745.60 221.40 L 748.20 225.10 L 745.70 228.40 L 742.70 231.70 L 739.20 234.80 L 732.80 239.00 L 727.60 241.00 L 725.90 241.30 L 724.70 241.10 L 722.10 239.60 L 717.20 232.00 L 711.90 224.50 L 706.20 217.30 L 688.20 196.70 Z" fill="#d01d7c" fill-rule="nonzero" node-id="62" stroke="none" target-height="44.600006" target-width="60" target-x="688.2" target-y="196.7"></path><path d="M 247.60 404.70 L 247.10 398.40 L 248.90 398.80 L 249.90 408.90 L 254.10 410.20 L 254.70 406.80 L 253.50 400.30 L 253.30 397.60 L 253.50 389.30 L 253.10 385.10 L 254.10 382.80 L 254.40 380.60 L 254.70 374.10 L 255.90 370.10 L 256.60 364.40 L 259.20 352.50 L 260.50 349.10 L 262.20 342.00 L 266.60 328.00 L 269.70 320.40 L 272.10 312.50 L 275.40 303.40 L 281.80 289.50 L 288.70 277.80 L 289.30 281.00 L 282.70 294.80 L 276.20 309.30 L 272.20 319.10 L 265.20 339.20 L 262.20 349.50 L 259.80 359.80 L 257.90 370.20 L 256.90 378.00 L 256.30 385.90 L 256.10 393.60 L 256.30 401.40 L 257.00 409.20 L 258.20 416.90 L 259.90 424.50 L 262.10 432.20 L 264.00 437.00 L 268.30 446.00 L 272.10 452.50 L 276.40 458.90 L 274.30 463.10 L 273.50 467.60 L 276.00 471.20 L 279.90 478.70 L 281.70 481.30 L 286.00 486.20 L 296.90 497.10 L 303.70 503.10 L 310.80 508.60 L 318.20 513.80 L 325.80 518.50 L 333.70 522.80 L 341.90 526.70 L 355.40 531.90 L 348.70 550.90 L 342.60 569.80 L 335.50 595.30 L 329.80 621.10 L 325.40 647.60 L 324.90 644.70 L 325.20 641.80 L 321.80 640.30 L 318.30 639.30 L 315.50 636.30 L 308.10 631.00 L 283.30 611.90 L 272.80 603.20 L 262.70 594.30 L 252.90 585.10 L 234.00 565.90 L 224.90 555.90 L 217.50 547.20 L 210.30 537.80 L 201.40 524.60 L 193.50 510.60 L 190.00 503.40 L 187.00 496.00 L 184.30 488.50 L 182.20 481.00 L 180.60 473.30 L 179.50 465.60 L 179.00 457.90 L 179.20 450.10 L 180.40 442.60 L 181.60 438.80 L 184.80 431.50 L 189.30 425.00 L 194.60 419.50 L 198.20 416.80 L 202.10 414.50 L 206.10 412.60 L 210.30 411.10 L 219.20 409.00 L 226.00 408.10 L 232.90 407.80 L 246.20 408.40 L 247.60 404.70 Z" fill="#030317" fill-rule="nonzero" node-id="64" stroke="none" target-height="369.8" target-width="176.4" target-x="179" target-y="277.8"></path><path d="M 752.70 215.40 L 757.60 220.60 L 760.30 222.70 L 767.30 226.90 L 778.40 235.10 L 781.00 236.70 L 786.40 238.90 L 792.00 234.70 L 794.40 238.90 L 794.10 236.00 L 796.20 234.70 L 796.20 233.20 L 797.20 231.20 L 797.60 229.00 L 799.80 229.90 L 797.20 237.60 L 794.50 243.50 L 791.30 249.20 L 787.60 254.60 L 783.50 259.60 L 778.90 264.30 L 774.00 268.60 L 768.70 272.40 L 763.10 275.70 L 748.10 281.90 L 754.10 296.00 L 763.90 321.20 L 770.50 342.10 L 773.30 352.80 L 775.60 363.60 L 777.30 374.30 L 778.20 382.40 L 778.60 390.50 L 778.60 398.50 L 778.20 406.40 L 777.30 414.30 L 775.90 422.10 L 773.80 429.70 L 771.30 437.30 L 768.00 444.90 L 764.30 452.00 L 760.10 458.70 L 755.50 465.10 L 750.50 471.30 L 745.30 477.20 L 736.90 485.60 L 728.00 493.70 L 690.90 524.30 L 700.80 521.20 L 719.90 514.10 L 729.20 510.00 L 738.30 505.40 L 747.40 500.20 L 753.30 496.30 L 777.80 477.10 L 784.20 472.80 L 788.60 470.30 L 793.00 468.10 L 797.40 466.40 L 802.00 465.20 L 806.70 464.60 L 811.60 464.70 L 815.10 465.10 L 818.80 466.10 L 822.70 467.50 L 826.80 469.50 L 829.90 471.50 L 832.60 473.70 L 835.00 476.20 L 837.10 478.90 L 839.40 482.80 L 841.30 487.10 L 842.80 491.60 L 844.00 497.10 L 844.60 502.50 L 844.50 507.90 L 844.00 513.30 L 842.90 518.60 L 841.40 523.80 L 839.50 529.00 L 834.60 538.80 L 830.90 544.80 L 826.70 550.60 L 822.10 556.40 L 817.00 562.00 L 809.90 569.10 L 802.30 575.80 L 794.20 582.20 L 785.80 588.30 L 777.20 593.90 L 768.40 599.00 L 750.70 608.10 L 735.20 614.60 L 700.10 627.00 L 699.60 625.70 L 697.10 625.70 L 692.80 597.70 L 689.80 584.90 L 686.20 572.10 L 683.50 563.60 L 677.10 547.00 L 673.40 538.90 L 665.20 523.30 L 673.00 518.00 L 690.00 508.50 L 699.60 502.30 L 709.10 495.50 L 721.30 485.60 L 732.80 474.80 L 743.20 463.20 L 747.90 457.00 L 752.20 450.70 L 756.00 444.10 L 758.80 438.50 L 761.20 432.80 L 763.30 426.80 L 764.90 420.70 L 766.50 412.50 L 767.50 404.10 L 768.00 395.50 L 767.90 386.90 L 767.40 378.40 L 766.40 369.90 L 765.00 361.50 L 761.10 345.40 L 759.60 336.90 L 757.50 328.40 L 754.90 319.80 L 751.90 311.30 L 744.90 294.50 L 738.80 282.30 L 732.30 270.40 L 718.40 247.90 L 720.80 244.00 L 722.10 239.60 L 724.70 241.10 L 725.90 241.30 L 730.20 240.20 L 735.50 237.50 L 739.20 234.80 L 742.70 231.70 L 745.70 228.40 L 748.20 225.10 L 749.50 222.90 L 752.70 215.40 Z" fill="#060219" fill-rule="nonzero" node-id="66" stroke="none" target-height="411.6" target-width="179.39996" target-x="665.2" target-y="215.4"></path><path d="M 316.20 668.30 L 321.80 663.60 L 323.00 661.10 L 323.60 658.80 L 326.60 668.90 L 332.10 680.80 L 341.30 696.90 L 347.10 705.80 L 353.40 714.60 L 360.10 722.90 L 367.20 730.90 L 374.80 738.50 L 386.90 749.10 L 399.90 758.40 L 409.30 764.10 L 418.90 769.20 L 428.60 773.80 L 438.50 777.90 L 448.60 781.40 L 458.80 784.40 L 469.20 786.90 L 479.60 788.80 L 490.20 790.20 L 500.80 791.20 L 511.50 791.60 L 522.20 791.50 L 533.00 790.80 L 543.70 789.70 L 554.40 788.10 L 565.20 786.00 L 574.40 783.80 L 583.40 781.20 L 592.20 778.30 L 600.70 774.90 L 609.00 771.10 L 617.10 766.80 L 624.80 762.10 L 632.30 756.90 L 638.00 752.40 L 643.50 747.60 L 648.80 742.30 L 653.80 736.70 L 663.90 724.20 L 668.70 717.60 L 673.00 710.80 L 680.70 696.70 L 688.80 678.20 L 693.20 666.60 L 695.10 668.40 L 699.00 666.50 L 703.10 668.70 L 704.40 666.80 L 705.80 678.80 L 706.80 691.20 L 707.30 704.00 L 707.40 716.70 L 706.90 729.60 L 705.90 742.50 L 704.30 755.40 L 702.10 768.00 L 699.30 780.40 L 696.80 789.60 L 693.90 798.50 L 690.60 807.10 L 687.00 815.40 L 696.50 821.00 L 700.90 824.10 L 707.60 830.10 L 709.90 832.90 L 713.40 838.70 L 715.30 844.30 L 715.70 847.20 L 715.60 850.10 L 715.10 853.10 L 712.60 859.10 L 710.80 862.00 L 707.60 865.90 L 703.90 869.50 L 699.90 872.80 L 691.30 878.40 L 678.10 885.20 L 668.90 889.10 L 659.40 892.60 L 649.70 895.60 L 639.80 898.20 L 629.90 900.50 L 614.80 903.20 L 599.60 905.40 L 569.60 908.60 L 537.20 910.90 L 503.60 912.00 L 486.80 911.90 L 469.80 911.40 L 452.90 910.30 L 436.20 908.70 L 419.70 906.50 L 407.30 904.40 L 395.20 901.90 L 383.20 899.00 L 358.10 891.50 L 343.30 886.10 L 335.90 882.80 L 328.80 879.10 L 324.40 876.30 L 316.50 870.10 L 313.20 866.60 L 310.30 862.80 L 308.00 858.70 L 306.40 853.30 L 306.10 850.40 L 306.20 847.50 L 307.40 841.90 L 309.40 837.80 L 311.80 833.90 L 314.80 830.30 L 321.70 824.00 L 325.60 821.30 L 331.70 817.70 L 337.80 814.70 L 333.10 803.30 L 328.90 791.60 L 325.30 779.70 L 322.30 767.60 L 319.70 755.30 L 317.70 743.00 L 316.10 730.60 L 315.10 718.10 L 314.70 705.60 L 314.70 693.10 L 315.20 680.70 L 316.20 668.30 Z" fill="#030317" fill-rule="nonzero" node-id="68" stroke="none" target-height="253.20001" target-width="409.6" target-x="306.1" target-y="658.8"></path><path d="M 337.80 814.70 L 342.70 824.00 L 348.50 833.50 L 352.70 839.60 L 362.10 851.30 L 367.30 856.80 L 372.80 861.70 L 378.60 866.20 L 383.10 869.20 L 387.90 871.90 L 392.80 874.10 L 397.80 876.00 L 405.90 877.70 L 410.30 878.20 L 419.10 878.10 L 427.80 876.60 L 431.80 875.20 L 435.50 873.50 L 439.10 871.40 L 442.40 869.00 L 445.40 866.20 L 448.10 863.20 L 450.60 859.90 L 452.70 856.40 L 454.40 852.70 L 455.80 848.70 L 456.90 844.30 L 457.50 839.90 L 457.70 835.40 L 457.40 828.70 L 456.50 821.90 L 451.50 795.30 L 462.20 797.60 L 472.80 799.40 L 483.20 800.80 L 493.60 801.80 L 504.00 802.40 L 514.50 802.60 L 524.90 802.30 L 535.30 801.70 L 545.70 800.60 L 556.20 799.10 L 566.70 797.20 L 577.40 794.80 L 573.30 815.60 L 571.60 830.00 L 571.40 837.20 L 571.60 841.90 L 573.30 851.10 L 574.70 855.40 L 576.60 859.70 L 579.10 863.80 L 581.60 867.00 L 584.20 869.70 L 587.00 871.90 L 589.90 873.80 L 594.20 875.90 L 598.90 877.50 L 604.00 878.60 L 609.10 879.20 L 614.20 879.20 L 619.20 878.70 L 624.10 877.60 L 628.90 876.10 L 633.60 874.10 L 642.50 869.20 L 652.50 861.70 L 657.90 856.70 L 662.90 851.60 L 672.00 840.40 L 680.00 828.30 L 687.00 815.40 L 696.50 821.00 L 700.90 824.10 L 707.60 830.10 L 709.90 832.90 L 713.40 838.70 L 715.30 844.30 L 715.70 847.20 L 715.60 850.10 L 715.10 853.10 L 712.60 859.10 L 710.80 862.00 L 707.60 865.90 L 703.90 869.50 L 699.90 872.80 L 691.30 878.40 L 678.10 885.20 L 668.90 889.10 L 659.40 892.60 L 649.70 895.60 L 639.80 898.20 L 629.90 900.50 L 614.80 903.20 L 599.60 905.40 L 584.40 907.20 L 553.50 909.90 L 537.20 910.90 L 503.60 912.00 L 486.80 911.90 L 469.80 911.40 L 452.90 910.30 L 436.20 908.70 L 419.70 906.50 L 407.30 904.40 L 395.20 901.90 L 383.20 899.00 L 358.10 891.50 L 343.30 886.10 L 335.90 882.80 L 328.80 879.10 L 320.30 873.30 L 316.50 870.10 L 313.20 866.60 L 310.30 862.80 L 308.00 858.70 L 307.00 856.00 L 306.10 850.40 L 306.60 844.70 L 307.40 841.90 L 309.40 837.80 L 311.80 833.90 L 314.80 830.30 L 321.70 824.00 L 325.60 821.30 L 331.70 817.70 L 337.80 814.70 Z" fill="#bf6f99" fill-rule="nonzero" node-id="70" stroke="none" target-height="117.20001" target-width="409.6" target-x="306.1" target-y="794.8"></path><path d="M 298.90 265.60 L 297.60 282.20 L 297.20 290.50 L 297.20 298.80 L 297.80 310.00 L 299.00 321.60 L 300.80 333.40 L 303.10 345.20 L 306.00 356.90 L 309.60 368.50 L 316.00 385.50 L 323.70 401.60 L 328.10 409.40 L 332.80 416.70 L 337.90 423.70 L 343.30 430.20 L 351.60 439.30 L 360.20 447.80 L 369.20 455.80 L 378.50 463.30 L 388.10 470.30 L 398.10 476.80 L 408.30 482.70 L 418.80 488.10 L 429.60 492.90 L 440.70 497.20 L 450.10 500.30 L 459.60 502.90 L 469.30 505.10 L 479.20 506.90 L 489.30 508.30 L 502.90 509.40 L 506.30 509.20 L 507.90 508.60 L 509.30 507.70 L 515.70 507.30 L 515.90 508.30 L 518.50 509.60 L 521.90 510.20 L 530.20 510.10 L 534.70 509.60 L 550.90 507.00 L 563.10 504.80 L 575.20 502.10 L 587.10 499.10 L 599.00 495.60 L 610.70 491.70 L 622.30 487.30 L 633.80 482.60 L 645.00 477.50 L 656.10 471.90 L 667.00 466.00 L 677.70 459.70 L 688.20 453.10 L 698.40 446.10 L 708.40 438.80 L 723.80 426.20 L 729.40 420.90 L 734.70 415.20 L 739.70 409.30 L 744.20 403.00 L 748.30 396.40 L 751.00 391.30 L 755.50 380.70 L 757.10 375.30 L 758.70 367.90 L 759.70 360.40 L 761.10 345.40 L 765.00 361.50 L 766.40 369.90 L 767.40 378.40 L 767.90 386.90 L 768.00 395.50 L 767.50 404.10 L 766.50 412.50 L 764.90 420.70 L 763.30 426.80 L 761.20 432.80 L 758.80 438.50 L 756.00 444.10 L 752.20 450.70 L 747.90 457.00 L 743.20 463.20 L 732.80 474.80 L 721.30 485.60 L 709.10 495.50 L 699.60 502.30 L 690.00 508.50 L 673.00 518.00 L 665.20 523.30 L 673.40 538.90 L 680.40 555.20 L 686.20 572.10 L 689.80 584.90 L 692.80 597.70 L 694.10 604.70 L 697.10 625.70 L 699.60 625.70 L 700.10 627.00 L 704.40 666.80 L 703.10 668.70 L 699.00 666.50 L 695.10 668.40 L 693.20 666.60 L 688.80 678.20 L 680.70 696.70 L 673.00 710.80 L 668.70 717.60 L 663.90 724.20 L 653.80 736.70 L 648.80 742.30 L 643.50 747.60 L 638.00 752.40 L 632.30 756.90 L 624.80 762.10 L 617.10 766.80 L 609.00 771.10 L 600.70 774.90 L 592.20 778.30 L 583.40 781.20 L 574.40 783.80 L 565.20 786.00 L 554.40 788.10 L 543.70 789.70 L 533.00 790.80 L 522.20 791.50 L 511.50 791.60 L 500.80 791.20 L 490.20 790.20 L 479.60 788.80 L 469.20 786.90 L 458.80 784.40 L 448.60 781.40 L 438.50 777.90 L 428.60 773.80 L 418.90 769.20 L 409.30 764.10 L 399.90 758.40 L 393.30 753.90 L 380.70 744.00 L 374.80 738.50 L 367.20 730.90 L 360.10 722.90 L 353.40 714.60 L 347.10 705.80 L 341.30 696.90 L 335.90 687.70 L 328.70 673.70 L 324.90 663.90 L 323.60 658.80 L 329.80 621.10 L 335.50 595.30 L 342.60 569.80 L 348.70 550.90 L 355.40 531.90 L 341.90 526.70 L 333.70 522.80 L 325.80 518.50 L 318.20 513.80 L 310.80 508.60 L 303.70 503.10 L 296.90 497.10 L 283.80 483.80 L 279.90 478.70 L 276.00 471.20 L 273.50 467.60 L 274.30 463.10 L 276.40 458.90 L 272.10 452.50 L 268.30 446.00 L 264.00 437.00 L 262.10 432.20 L 259.90 424.50 L 258.20 416.90 L 257.00 409.20 L 256.30 401.40 L 256.10 393.60 L 256.30 385.80 L 256.90 378.00 L 257.90 370.20 L 259.80 359.80 L 262.20 349.50 L 265.20 339.20 L 268.50 329.10 L 276.20 309.30 L 282.70 294.80 L 289.30 281.00 L 298.90 265.60 Z" fill="#cbcacb" fill-rule="nonzero" node-id="72" stroke="none" target-height="526" target-width="511.9" target-x="256.1" target-y="265.6"></path><path d="M 276.40 458.90 L 283.00 465.90 L 296.50 478.50 L 303.50 484.40 L 318.20 495.10 L 334.00 504.80 L 342.40 509.30 L 360.90 517.80 L 365.40 520.30 L 368.80 522.90 L 365.60 524.60 L 362.40 525.60 L 360.20 525.90 L 355.50 525.40 L 350.20 523.70 L 344.80 521.40 L 324.30 510.70 L 314.40 504.60 L 304.70 498.00 L 290.90 487.10 L 278.10 475.10 L 273.50 467.60 L 274.30 463.10 L 276.40 458.90 Z" fill="#000001" fill-rule="nonzero" node-id="74" stroke="none" target-height="67.00003" target-width="95.29999" target-x="273.5" target-y="458.9"></path><path d="M 658.70 730.70 L 631.70 741.70 L 622.40 744.80 L 612.00 747.60 L 601.50 749.90 L 591.00 751.50 L 580.40 752.70 L 569.80 753.20 L 559.10 753.20 L 548.50 752.70 L 537.90 751.50 L 527.40 749.80 L 516.80 747.60 L 507.90 745.20 L 499.10 742.30 L 490.40 738.90 L 481.60 735.00 L 473.00 730.70 L 464.70 726.00 L 456.50 721.00 L 448.50 715.50 L 440.80 709.60 L 433.40 703.40 L 426.40 696.90 L 419.70 690.10 L 413.30 683.00 L 407.40 675.60 L 402.00 668.00 L 397.10 660.20 L 392.90 652.60 L 389.30 645.20 L 386.20 637.90 L 383.80 630.80 L 381.80 623.50 L 380.20 616.30 L 379.10 609.00 L 378.40 601.80 L 378.10 594.60 L 378.70 579.70 L 379.50 572.10 L 381.10 562.10 L 383.20 551.70 L 385.80 540.80 L 444.10 552.20 L 459.10 554.60 L 474.00 556.40 L 488.90 557.50 L 503.70 558.10 L 518.50 558.00 L 533.30 557.40 L 548.00 556.20 L 562.70 554.40 L 577.40 552.10 L 592.00 549.20 L 606.60 545.80 L 621.20 541.80 L 635.90 537.20 L 643.50 534.50 L 655.80 529.20 L 660.20 526.70 L 665.20 523.30 L 673.40 538.90 L 680.40 555.30 L 686.20 572.10 L 689.80 584.90 L 692.80 597.70 L 694.10 604.70 L 697.10 625.70 L 699.60 625.70 L 700.10 627.00 L 704.40 666.80 L 703.10 668.70 L 699.00 666.50 L 695.10 668.40 L 693.20 666.60 L 688.80 678.20 L 684.10 689.40 L 677.00 703.90 L 673.00 710.80 L 668.70 717.60 L 663.90 724.20 L 658.70 730.70 Z" fill="#fdfdfd" fill-rule="nonzero" node-id="76" stroke="none" target-height="229.90002" target-width="326.30002" target-x="378.1" target-y="523.3"></path><path d="M 697.10 625.70 L 699.60 625.70 L 700.10 627.00 L 704.40 666.80 L 703.10 668.70 L 699.00 666.50 L 695.10 668.40 L 693.20 666.60 L 694.90 659.50 L 696.10 652.90 L 696.80 646.30 L 697.20 639.70 L 697.10 625.70 Z" fill="#000001" fill-rule="nonzero" node-id="78" stroke="none" target-height="43" target-width="11.200012" target-x="693.2" target-y="625.7"></path><path d="M 387.60 161.00 L 398.00 155.60 L 408.50 150.60 L 419.10 146.20 L 429.70 142.20 L 440.40 138.60 L 451.30 135.50 L 462.20 132.90 L 473.30 130.80 L 484.30 129.10 L 495.40 128.00 L 506.60 127.40 L 517.90 127.20 L 529.10 127.60 L 540.30 128.40 L 551.60 129.80 L 562.90 131.80 L 574.40 134.30 L 585.80 137.30 L 604.30 143.50 L 613.70 147.20 L 622.80 151.40 L 628.80 154.50 L 639.60 161.10 L 642.70 166.90 L 643.40 168.90 L 643.90 173.30 L 670.40 193.90 L 674.90 192.30 L 679.60 191.40 L 688.20 196.70 L 706.20 217.30 L 711.90 224.50 L 717.20 232.00 L 722.10 239.60 L 720.80 244.00 L 718.40 247.90 L 732.30 270.40 L 738.80 282.30 L 744.90 294.50 L 748.60 302.90 L 754.90 319.80 L 757.50 328.40 L 759.60 336.90 L 761.10 345.40 L 759.70 360.40 L 758.70 367.90 L 757.10 375.30 L 755.50 380.70 L 751.00 391.30 L 748.30 396.40 L 744.20 403.00 L 739.70 409.30 L 734.70 415.20 L 729.40 420.90 L 723.80 426.20 L 718.10 431.20 L 708.40 438.80 L 698.40 446.10 L 688.20 453.10 L 677.70 459.70 L 667.00 466.00 L 656.10 471.90 L 645.00 477.50 L 633.80 482.60 L 622.30 487.30 L 610.70 491.70 L 599.00 495.60 L 587.10 499.10 L 575.20 502.10 L 563.10 504.80 L 550.90 507.00 L 534.70 509.60 L 530.20 510.10 L 521.90 510.20 L 518.50 509.60 L 515.90 508.30 L 515.70 507.30 L 509.30 507.70 L 507.90 508.60 L 504.60 509.40 L 499.60 509.20 L 489.30 508.30 L 479.20 506.90 L 469.30 505.10 L 459.60 502.90 L 450.10 500.30 L 440.70 497.20 L 429.60 492.90 L 418.80 488.10 L 408.30 482.70 L 398.10 476.80 L 388.10 470.30 L 378.50 463.30 L 369.20 455.80 L 360.20 447.80 L 351.60 439.30 L 343.30 430.20 L 337.90 423.70 L 332.80 416.70 L 328.10 409.40 L 323.70 401.60 L 319.70 393.70 L 312.60 377.10 L 309.60 368.50 L 306.00 356.90 L 303.10 345.20 L 300.80 333.40 L 299.00 321.60 L 297.80 310.00 L 297.20 298.80 L 297.20 290.50 L 297.60 282.20 L 298.90 265.60 L 306.20 251.90 L 303.50 248.00 L 301.30 243.70 L 303.30 240.80 L 337.80 200.20 L 353.80 184.30 L 376.00 168.10 L 387.60 161.00 Z" fill="#fdfdfd" fill-rule="nonzero" node-id="80" stroke="none" target-height="383" target-width="463.89996" target-x="297.2" target-y="127.2"></path><path d="M 670.40 193.90 L 674.90 192.30 L 679.60 191.40 L 688.20 196.70 L 706.20 217.30 L 711.90 224.50 L 717.20 232.00 L 722.10 239.60 L 720.80 244.00 L 718.40 247.90 L 711.20 238.00 L 703.70 228.50 L 695.90 219.50 L 687.90 210.80 L 679.40 202.30 L 670.40 193.90 Z" fill="#000001" fill-rule="nonzero" node-id="82" stroke="none" target-height="56.5" target-width="51.69995" target-x="670.4" target-y="191.4"></path><path d="M 495.80 393.60 L 501.60 390.40 L 504.50 388.40 L 507.00 386.20 L 509.60 382.70 L 510.50 380.70 L 511.00 377.20 L 510.40 369.80 L 494.00 355.50 L 491.40 352.80 L 487.20 347.20 L 485.70 344.10 L 484.80 340.80 L 484.50 337.20 L 484.70 335.50 L 486.50 332.00 L 487.70 330.60 L 490.00 328.80 L 492.60 327.40 L 495.60 326.20 L 500.20 325.10 L 505.20 324.40 L 510.30 324.20 L 524.20 325.00 L 530.50 325.90 L 536.80 327.90 L 540.40 330.10 L 543.20 333.10 L 544.50 336.10 L 544.70 338.60 L 544.50 341.40 L 543.90 344.00 L 542.50 347.00 L 538.40 353.00 L 535.90 356.00 L 531.00 360.90 L 526.40 364.30 L 518.10 368.60 L 517.10 373.70 L 517.10 376.20 L 518.30 381.20 L 519.40 383.70 L 521.10 386.40 L 523.00 388.50 L 525.20 390.10 L 527.70 391.40 L 533.40 393.40 L 522.20 401.40 L 519.20 403.00 L 516.40 403.80 L 514.40 404.00 L 510.60 403.40 L 508.00 402.30 L 505.40 400.80 L 495.80 393.60 Z" fill="#000001" fill-rule="nonzero" node-id="84" stroke="none" target-height="79.79999" target-width="60.200012" target-x="484.5" target-y="324.2"></path><path d="M 387.60 161.00 L 398.00 155.60 L 408.50 150.60 L 419.10 146.20 L 429.70 142.20 L 440.50 138.60 L 451.30 135.50 L 462.20 132.90 L 473.30 130.80 L 484.30 129.10 L 495.40 128.00 L 506.60 127.40 L 517.90 127.20 L 529.10 127.60 L 540.30 128.40 L 551.60 129.80 L 562.90 131.80 L 574.40 134.30 L 585.80 137.30 L 604.30 143.50 L 613.70 147.20 L 622.80 151.40 L 628.80 154.50 L 639.60 161.10 L 642.70 166.90 L 643.40 168.90 L 643.90 173.30 L 627.10 163.70 L 618.60 159.10 L 609.80 155.00 L 600.80 151.40 L 591.60 148.10 L 582.30 145.10 L 572.70 142.60 L 553.30 138.60 L 533.70 136.10 L 523.70 135.50 L 513.80 135.30 L 504.00 135.40 L 494.10 136.00 L 484.30 137.00 L 474.60 138.40 L 465.00 140.30 L 455.50 142.50 L 445.10 145.50 L 435.00 148.90 L 425.10 152.60 L 415.50 156.80 L 406.10 161.30 L 396.90 166.20 L 386.10 172.60 L 375.70 179.50 L 365.70 186.90 L 356.00 194.80 L 346.70 203.20 L 337.80 212.00 L 329.30 221.30 L 321.20 231.00 L 313.50 241.20 L 306.20 251.90 L 303.50 248.00 L 301.30 243.70 L 303.30 240.80 L 337.80 200.20 L 353.80 184.30 L 376.00 168.10 L 387.60 161.00 Z" fill="#000001" fill-rule="nonzero" node-id="86" stroke="none" target-height="124.7" target-width="342.60004" target-x="301.3" target-y="127.2"></path><path d="M 509.30 507.70 L 502.60 504.80 L 499.00 502.70 L 492.80 497.90 L 490.10 495.10 L 485.50 488.70 L 483.50 484.90 L 480.50 477.60 L 475.40 459.50 L 471.70 443.40 L 468.00 425.90 L 464.80 408.60 L 462.50 393.00 L 461.70 386.20 L 461.50 377.50 L 462.10 373.90 L 469.90 382.70 L 478.60 390.70 L 495.80 393.60 L 505.40 400.80 L 508.00 402.30 L 510.60 403.40 L 514.40 404.00 L 516.40 403.80 L 519.20 403.00 L 522.20 401.40 L 533.40 393.40 L 537.40 393.40 L 541.40 393.00 L 549.20 391.50 L 550.60 390.70 L 554.10 388.30 L 557.00 385.80 L 559.60 382.90 L 561.90 379.90 L 566.30 373.00 L 554.90 447.40 L 553.10 456.60 L 550.00 468.50 L 545.80 479.90 L 543.10 485.10 L 540.10 490.10 L 537.50 493.60 L 531.50 499.80 L 528.00 502.50 L 525.20 504.20 L 522.10 505.40 L 515.70 507.30 L 509.30 507.70 Z" fill="#000001" fill-rule="nonzero" node-id="88" stroke="none" target-height="134.70001" target-width="104.79999" target-x="461.5" target-y="373"></path><path d="M 483.10 443.60 L 486.10 441.70 L 489.40 440.30 L 492.80 439.50 L 498.20 439.30 L 500.70 439.70 L 505.20 441.40 L 518.50 449.70 L 520.30 446.80 L 522.50 444.20 L 525.50 441.70 L 532.00 437.70 L 535.50 436.30 L 539.10 435.50 L 543.00 435.20 L 545.40 438.00 L 542.40 450.30 L 540.50 456.80 L 538.10 463.20 L 534.10 471.10 L 531.70 474.70 L 529.00 478.00 L 526.00 480.90 L 522.60 483.40 L 520.40 484.50 L 515.70 485.80 L 510.70 485.90 L 508.30 485.40 L 505.70 484.30 L 503.10 482.70 L 500.60 480.80 L 497.30 477.30 L 494.40 473.40 L 490.00 465.50 L 486.00 454.70 L 483.10 443.60 Z" fill="#e4148f" fill-rule="nonzero" node-id="90" stroke="none" target-height="50.69998" target-width="62.30002" target-x="483.1" target-y="435.2"></path><path d="M 478.60 390.70 L 495.80 393.60 L 505.40 400.80 L 508.00 402.30 L 510.60 403.40 L 514.40 404.00 L 516.40 403.80 L 519.20 403.00 L 522.20 401.40 L 533.40 393.40 L 537.40 393.40 L 541.40 393.00 L 549.20 391.50 L 547.60 422.70 L 546.70 430.40 L 545.40 438.00 L 543.00 435.20 L 539.10 435.50 L 535.50 436.30 L 532.00 437.70 L 525.50 441.70 L 522.50 444.20 L 520.30 446.80 L 518.50 449.70 L 505.20 441.40 L 500.70 439.70 L 498.20 439.30 L 492.80 439.50 L 489.40 440.30 L 486.10 441.70 L 483.10 443.60 L 478.60 390.70 Z" fill="#460511" fill-rule="nonzero" node-id="92" stroke="none" target-height="59" target-width="70.600006" target-x="478.6" target-y="390.7"></path><path d="M 597.50 237.00 L 612.00 237.00 L 618.90 237.60 L 630.20 239.80 L 639.60 243.00 L 647.10 246.30 L 654.40 250.20 L 661.30 254.50 L 668.00 259.20 L 674.30 264.40 L 680.30 270.00 L 685.90 276.00 L 691.10 282.30 L 695.90 288.90 L 700.20 295.90 L 704.10 303.10 L 707.50 310.60 L 709.40 315.60 L 712.30 326.40 L 713.30 331.90 L 714.30 343.20 L 714.30 349.00 L 713.10 360.20 L 712.00 365.60 L 710.50 370.90 L 708.60 376.00 L 706.20 381.10 L 703.60 385.70 L 697.80 393.80 L 693.20 398.70 L 688.30 403.00 L 682.90 406.90 L 677.20 410.40 L 671.10 413.60 L 664.40 416.50 L 658.50 418.10 L 648.80 420.00 L 643.60 420.50 L 638.20 420.60 L 633.00 420.30 L 627.90 419.40 L 621.60 417.30 L 618.80 415.70 L 616.10 413.70 L 613.70 411.30 L 611.40 408.30 L 608.40 403.30 L 605.80 397.50 L 603.40 391.50 L 595.20 367.20 L 593.20 362.50 L 589.40 355.20 L 581.00 341.50 L 558.20 308.10 L 555.60 303.30 L 552.90 296.70 L 552.00 293.30 L 551.10 285.60 L 551.60 277.90 L 553.40 270.30 L 554.80 266.70 L 558.50 259.90 L 561.70 255.70 L 565.30 251.90 L 569.20 248.70 L 573.40 245.90 L 577.90 243.50 L 582.60 241.40 L 592.40 238.20 L 597.50 237.00 Z" fill="#271834" fill-rule="nonzero" node-id="94" stroke="none" target-height="183.6" target-width="163.20001" target-x="551.1" target-y="237"></path><path d="M 607.90 343.60 L 604.20 340.10 L 603.60 337.70 L 603.90 334.60 L 604.90 331.70 L 606.30 328.90 L 610.10 324.00 L 615.20 319.50 L 621.50 315.90 L 628.40 313.50 L 632.00 312.80 L 637.50 312.30 L 643.00 312.30 L 646.20 312.70 L 652.50 314.20 L 658.50 316.90 L 664.00 320.50 L 668.60 325.10 L 670.70 327.90 L 672.20 330.70 L 674.00 336.50 L 674.40 343.10 L 669.30 347.60 L 666.20 339.50 L 664.10 336.10 L 661.60 333.00 L 658.60 330.20 L 654.80 327.60 L 651.10 325.60 L 647.10 324.20 L 642.90 323.30 L 638.70 322.90 L 634.50 323.00 L 630.40 323.80 L 626.80 325.00 L 620.80 328.10 L 615.80 332.30 L 613.60 334.80 L 610.60 338.90 L 607.90 343.60 Z" fill="#fdfdfd" fill-rule="nonzero" node-id="96" stroke="none" target-height="35.30002" target-width="70.80005" target-x="603.6" target-y="312.3"></path><path d="M 607.90 343.60 L 610.60 338.90 L 613.60 334.80 L 618.20 330.10 L 623.60 326.40 L 630.40 323.80 L 634.50 323.00 L 638.70 322.90 L 642.90 323.30 L 647.10 324.20 L 651.10 325.60 L 654.80 327.60 L 658.60 330.20 L 661.60 333.00 L 664.10 336.10 L 666.20 339.50 L 669.30 347.60 L 668.30 350.80 L 666.80 353.90 L 665.00 356.80 L 662.80 359.30 L 660.90 357.40 L 659.50 355.20 L 655.70 347.90 L 654.10 345.70 L 651.80 343.50 L 649.50 341.80 L 646.90 340.50 L 644.10 339.70 L 641.20 339.10 L 638.10 339.00 L 634.90 339.30 L 632.00 339.90 L 629.40 341.00 L 624.50 344.00 L 617.80 350.40 L 615.10 349.20 L 612.60 347.50 L 607.90 343.60 Z" fill="#000001" fill-rule="nonzero" node-id="98" stroke="none" target-height="36.399994" target-width="61.399963" target-x="607.9" target-y="322.9"></path><path d="M 410.30 234.30 L 418.20 234.10 L 426.00 234.50 L 431.10 235.00 L 436.00 236.00 L 440.90 237.40 L 445.50 239.30 L 450.10 241.80 L 454.70 245.00 L 457.90 247.70 L 463.80 254.00 L 466.40 257.40 L 470.70 264.90 L 472.30 268.90 L 473.50 273.00 L 474.20 277.30 L 474.50 281.80 L 474.30 286.20 L 473.80 290.40 L 472.80 294.50 L 471.10 299.80 L 468.90 305.00 L 466.30 310.20 L 461.70 317.60 L 443.50 344.50 L 438.20 354.50 L 435.70 360.70 L 433.90 366.70 L 429.30 384.40 L 427.10 390.20 L 425.40 394.00 L 423.10 397.80 L 420.20 401.60 L 416.40 405.90 L 412.30 409.60 L 408.00 412.80 L 403.40 415.60 L 398.50 418.00 L 393.50 419.90 L 388.20 421.50 L 382.90 422.60 L 377.30 423.40 L 371.90 422.90 L 366.70 422.00 L 361.80 420.70 L 357.00 418.80 L 352.20 416.60 L 347.60 413.80 L 343.30 410.70 L 339.20 407.20 L 331.50 399.10 L 328.00 394.60 L 321.90 385.00 L 317.00 374.80 L 313.60 364.30 L 312.40 359.20 L 311.50 352.60 L 311.10 345.90 L 311.30 339.30 L 311.90 332.60 L 313.10 326.10 L 314.70 319.50 L 316.70 313.10 L 319.10 306.90 L 324.90 294.80 L 332.00 283.60 L 336.90 277.30 L 342.10 271.30 L 347.60 265.70 L 353.60 260.50 L 359.80 255.60 L 366.30 251.20 L 373.10 247.20 L 380.20 243.70 L 387.50 240.60 L 394.90 238.00 L 402.50 235.90 L 410.30 234.30 Z" fill="#271834" fill-rule="nonzero" node-id="100" stroke="none" target-height="189.29999" target-width="163.4" target-x="311.1" target-y="234.1"></path><path d="M 359.60 350.20 L 356.20 351.40 L 353.20 348.60 L 352.60 347.30 L 352.50 345.40 L 352.70 343.10 L 354.30 338.20 L 356.50 333.50 L 358.70 329.80 L 363.30 324.40 L 366.00 322.10 L 371.90 318.10 L 378.40 315.30 L 385.30 313.70 L 390.60 313.20 L 396.00 313.40 L 399.60 313.80 L 406.60 315.60 L 413.00 318.60 L 416.00 320.70 L 419.00 323.40 L 422.10 326.70 L 424.90 330.40 L 428.40 337.10 L 429.80 342.40 L 424.00 347.40 L 417.80 337.30 L 415.60 334.30 L 410.50 329.10 L 407.50 327.10 L 404.00 325.30 L 399.80 323.90 L 395.60 323.10 L 391.40 322.80 L 387.30 323.20 L 383.30 324.10 L 379.50 325.50 L 375.70 327.50 L 372.00 329.90 L 368.70 332.60 L 365.90 335.50 L 362.60 340.50 L 361.30 343.50 L 359.60 350.20 Z" fill="#fdfdfd" fill-rule="nonzero" node-id="102" stroke="none" target-height="38.19998" target-width="77.29999" target-x="352.5" target-y="313.2"></path><path d="M 359.60 350.20 L 361.30 343.50 L 362.60 340.50 L 365.90 335.50 L 368.70 332.60 L 372.00 329.90 L 375.70 327.50 L 379.50 325.50 L 383.30 324.10 L 387.30 323.20 L 391.40 322.80 L 395.60 323.10 L 399.80 323.90 L 404.00 325.30 L 407.50 327.10 L 410.50 329.10 L 415.60 334.30 L 417.80 337.30 L 424.00 347.40 L 417.60 354.20 L 415.70 355.50 L 413.60 356.40 L 409.60 350.40 L 407.20 347.40 L 404.50 344.80 L 402.50 343.40 L 398.20 341.60 L 394.80 341.10 L 388.40 341.00 L 385.30 341.50 L 382.30 342.60 L 379.20 344.30 L 376.60 346.30 L 374.00 348.70 L 364.80 359.30 L 361.20 355.80 L 360.00 353.00 L 359.60 350.20 Z" fill="#000001" fill-rule="nonzero" node-id="104" stroke="none" target-height="36.5" target-width="64.399994" target-x="359.6" target-y="322.8"></path></svg>